<svg xmlns="http://www.w3.org/2000/svg" data-name="Layer 1" viewBox="0 0 98 122.5" x="0px" y="0px"><title>04</title><g data-name="Group"><path data-name="Compound Path" d="M81.4,16H76V11.5C76,8.7,73.5,7,70.7,7H64.8C62,7,60,8.7,60,11.5V16H38V11.5C38,8.7,36,7,33.2,7H27.3C24.5,7,22,8.7,22,11.5V16H16.6A8.4,8.4,0,0,0,8,24.7V82.5c0,5,3.6,9.5,8.6,9.5H81.4c5,0,8.6-4.5,8.6-9.5V24.7A8.4,8.4,0,0,0,81.4,16ZM66,13h4v9H66ZM28,13h4v9H28ZM16.6,22H22v1.2A5,5,0,0,0,27.3,28h5.9A4.6,4.6,0,0,0,38,23.2V22H60v1.2A4.6,4.6,0,0,0,64.8,28h5.9A5,5,0,0,0,76,23.2V22h5.4A2.4,2.4,0,0,1,84,24.7V35H14V24.7A2.4,2.4,0,0,1,16.6,22ZM81.4,86H16.6c-1.7,0-2.6-1.8-2.6-3.5V41H84V82.5C84,84.2,83.1,86,81.4,86Z"/><path data-name="Compound Path" d="M64.4,55.9l-9.5-1.4-4.2-8.6a3,3,0,0,0-5.4,0l-4.2,8.6-9.5,1.4A3,3,0,0,0,29.9,61l6.9,6.6-1.6,9.5A2.9,2.9,0,0,0,36.3,80a3.1,3.1,0,0,0,3.2.3L48,75.8l8.5,4.5a3.2,3.2,0,0,0,3.2-.3,2.9,2.9,0,0,0,1.1-2.9l-1.6-9.5L66.1,61a3,3,0,0,0-1.7-5.1ZM53.9,64.4a3.3,3.3,0,0,0-.9,2.7l.9,5-4.5-2.3a2.7,2.7,0,0,0-2.8,0l-4.5,2.3.9-5a3.3,3.3,0,0,0-.9-2.7l-3.6-3.5,5-.7a3,3,0,0,0,2.2-1.7L48,54l2.3,4.5a3,3,0,0,0,2.2,1.7l5,.7Z"/></g><text x="0" y="113" fill="#000000" font-size="5px" font-weight="bold" font-family="'Helvetica Neue', Helvetica, Arial-Unicode, Arial, Sans-serif">Created by Kiran Shastry</text><text x="0" y="118" fill="#000000" font-size="5px" font-weight="bold" font-family="'Helvetica Neue', Helvetica, Arial-Unicode, Arial, Sans-serif">from the Noun Project</text></svg>