<svg xmlns="http://www.w3.org/2000/svg" xmlns:xlink="http://www.w3.org/1999/xlink" version="1.0" x="0px" y="0px" viewBox="0 0 100 125" enable-background="new 0 0 100 100" xml:space="preserve"><path d="M65.2680664,10.999999H12.5102615c-0.7898197,0-1.5155993,0.5443344-1.5155993,1.3021345v75.4064102  C10.9946623,88.4556656,11.7311153,89,12.5102615,89h74.9794769c0.7791443,0,1.5156021-0.5443344,1.5156021-1.2914581V36.8078804  H67.2639618c-1.09935,0-1.9958954-0.8858757-1.9958954-1.9852219V10.999999z M41.6802139,79.298027  c-2.6149445,0-2.6149445-3.9811096,0-3.9811096h39.3842392c2.6256104,0,2.6256104,3.9811096,0,3.9811096H41.6802139z   M41.9256973,71.3358002c-2.6256142,0-2.6256142-3.9811172,0-3.9811172h38.8932724c2.6256104,0,2.6256104,3.9811172,0,3.9811172  H41.9256973z M41.6802139,58.2183914c-2.6149445,0-2.6149445-3.9811172,0-3.9811172h39.3842392  c2.6256104,0,2.6256104,3.9811172,0,3.9811172H41.6802139z M41.9256973,50.2561569c-2.6256142,0-2.6256142-3.9811172,0-3.9811172  h38.8932724c2.6256104,0,2.6256104,3.9811172,0,3.9811172H41.9256973z M42.2992592,37.1280785  c-2.6256142,0-2.6256142-3.9811172,0-3.9811172h19.2545166c2.6149406,0,2.6149406,3.9811172,0,3.9811172H42.2992592z   M42.1711807,29.1658459c-2.6256142,0-2.6256142-3.9811172,0-3.9811172h19.5000038c2.6256142,0,2.6256142,3.9811172,0,3.9811172  H42.1711807z M19.0422821,64.5796356h13.5123138c1.0993462,0,1.9958954,0.896553,1.9958954,1.9958954v13.5123215  c0,1.0993423-0.8965492,1.9852219-1.9958954,1.9852219H19.0422821c-1.0993443,0-1.9852219-0.8858795-1.9852219-1.9852219V66.575531  C17.0570602,65.4761887,17.9429379,64.5796356,19.0422821,64.5796356z M19.0422821,43.5h13.5123138  c1.0993462,0,1.9958954,0.8858795,1.9958954,1.9852219v13.5123138c0,1.0993462-0.8965492,1.9958954-1.9958954,1.9958954H19.0422821  c-1.0993443,0-1.9852219-0.8965492-1.9852219-1.9958954V45.4852219C17.0570602,44.3858795,17.9429379,43.5,19.0422821,43.5z   M19.0422821,22.409687h13.5123138c1.0993462,0,1.9958954,0.8965511,1.9958954,1.9958954v13.5123138  c0,1.0993462-0.8965492,1.9852219-1.9958954,1.9852219H19.0422821c-1.0993443,0-1.9852219-0.8858757-1.9852219-1.9852219V24.4055824  C17.0570602,23.3062382,17.9429379,22.409687,19.0422821,22.409687z"/><polygon points="30.569376,26.3908043 21.0381756,26.3908043 21.0381756,35.9220047 30.569376,35.9220047 "/><polygon points="30.569376,47.4811172 21.0381756,47.4811172 21.0381756,57.0123138 30.569376,57.0123138 "/><polygon points="30.569376,68.5607529 21.0381756,68.5607529 21.0381756,78.0919571 30.569376,78.0919571 "/><polygon points="69.249176,10.999999 69.249176,32.8267632 88.674469,32.8267632 69.3132172,10.999999 "/><text x="0" y="115" fill="#000000" font-size="5px" font-weight="bold" font-family="'Helvetica Neue', Helvetica, Arial-Unicode, Arial, Sans-serif">Created by sofi</text><text x="0" y="120" fill="#000000" font-size="5px" font-weight="bold" font-family="'Helvetica Neue', Helvetica, Arial-Unicode, Arial, Sans-serif">from the Noun Project</text></svg>