<svg xmlns="http://www.w3.org/2000/svg" xmlns:xlink="http://www.w3.org/1999/xlink" viewBox="0 0 100 125" version="1.1" x="0px" y="0px"><title>i17 copy 2</title><desc>Created with Sketch.</desc><g stroke="none" stroke-width="1" fill="none" fill-rule="evenodd"><path d="M33.1761589,54.8030905 C27.3880795,50.0101545 23.7077263,42.8852097 23.7077263,34.9364238 C23.7077263,29.9165563 25.1788079,25.0397351 27.9620309,20.8339956 L36.0618102,26.193819 C34.3346578,28.8057395 33.4207506,31.8282561 33.4207506,34.9364238 C33.4207506,43.9774834 41.1231788,51.3328918 50.5916115,51.3328918 C60.0600442,51.3328918 67.7624724,43.9774834 67.7624724,34.9364238 C67.7624724,25.8944812 60.0600442,18.5390728 50.5916115,18.5390728 L40.384106,18.5390728 C32.9192053,18.5390728 26.8450331,12.4649007 26.8450331,5 L36.5580574,5 C36.5580574,7.10949227 38.2746137,8.82604857 40.384106,8.82604857 L50.5916115,8.82604857 C65.4154525,8.82604857 77.4754967,20.5390728 77.4754967,34.9364238 C77.4754967,42.8852097 73.7942605,50.0101545 68.007064,54.8030905 C83.9655629,61.4582781 95.183223,76.9699779 95.183223,95 L85.4701987,95 C85.4701987,76.2777042 69.8233996,61.0459161 50.5916115,61.0459161 C31.3598234,61.0459161 15.7130243,76.2777042 15.7130243,95 L6,95 C6,76.9699779 17.21766,61.4591611 33.1761589,54.8030905" fill="#000000"/></g><text x="0" y="115" fill="#000000" font-size="5px" font-weight="bold" font-family="'Helvetica Neue', Helvetica, Arial-Unicode, Arial, Sans-serif">Created by Ben Iconator</text><text x="0" y="120" fill="#000000" font-size="5px" font-weight="bold" font-family="'Helvetica Neue', Helvetica, Arial-Unicode, Arial, Sans-serif">from the Noun Project</text></svg>