<svg xmlns="http://www.w3.org/2000/svg" xmlns:xlink="http://www.w3.org/1999/xlink" version="1.1" x="0px" y="0px" viewBox="0 0 400 500" enable-background="new 0 0 400 400" xml:space="preserve"><path d="M284.18,106.261L35.477,178.564c-14.826,4.311-23.38,19.878-19.07,34.703l42.712,146.918  c4.311,14.825,19.878,23.38,34.704,19.07l248.702-72.304c14.826-4.311,23.381-19.878,19.07-34.703l-42.711-146.918  C314.572,110.505,299.004,101.951,284.18,106.261z M307.359,128.681l8.934,30.728l-133.998,38.956  c-2.351-7.712-6.193-18.653-11.03-26.471c0,0-26.532,5.745-38.311,19.573l-7.706-26.504l162.281-47.179  C296,115.321,304.896,120.209,307.359,128.681z M38.826,190.087L99.322,172.5l8.193,28.183  c-17.831-1.195-39.444,13.508-39.444,13.508c1.243,5.051,3.334,10.567,5.614,15.751l-36.823,10.705l-8.933-30.729  C25.466,201.447,30.355,192.55,38.826,190.087z M70.641,356.835L44.4,266.572l59.326-17.247c-2.939,8.73-6.987,19.146-12.573,31.451  l17.913,32.563c0,0,8.537-24.608,16.389-50.952l25.513,87.758l-60.496,17.587C82,370.195,73.104,365.307,70.641,356.835z   M339.174,295.429l-162.28,47.179l-28.739-98.854c26.391,21.042,58.13,43.746,58.13,43.746l-6.951-36.51  c-11.979-7.949-21.604-14.926-29.326-20.936l153.822-44.719l26.242,90.263C352.535,284.07,347.646,292.966,339.174,295.429z"/><path d="M43.661,141.268c-1.951,0-3.922-0.568-5.651-1.757L14.532,123.39c-4.553-3.126-5.709-9.352-2.583-13.904  c3.125-4.554,9.352-5.71,13.905-2.583l23.477,16.121c4.553,3.127,5.71,9.352,2.584,13.904  C49.975,139.75,46.845,141.268,43.661,141.268z"/><path d="M103.684,94.542c-3.199,0-6.342-1.531-8.277-4.374L70.198,53.127c-3.107-4.566-1.925-10.787,2.641-13.895  c4.567-3.106,10.787-1.924,13.894,2.641l25.209,37.041c3.107,4.566,1.924,10.787-2.641,13.895  C107.578,93.98,105.62,94.542,103.684,94.542z"/><path d="M199,76c-5.523,0-10-4.477-10-10V29c0-5.523,4.477-10,10-10c5.522,0,10,4.477,10,10v37C209,71.523,204.522,76,199,76z"/><path d="M355.531,141.268c-3.184,0-6.313-1.517-8.253-4.34c-3.126-4.553-1.97-10.777,2.584-13.904l23.478-16.121  c4.551-3.125,10.776-1.971,13.904,2.583c3.126,4.553,1.97,10.778-2.584,13.904l-23.478,16.121  C359.453,140.698,357.482,141.268,355.531,141.268z"/><path d="M295.51,94.542c-1.938,0-3.895-0.562-5.617-1.733c-4.566-3.107-5.748-9.328-2.642-13.894l25.208-37.041  c3.107-4.567,9.326-5.749,13.894-2.642c4.566,3.107,5.748,9.328,2.642,13.894l-25.208,37.041  C301.851,93.011,298.708,94.542,295.51,94.542z"/><text x="0" y="415" fill="#000000" font-size="5px" font-weight="bold" font-family="'Helvetica Neue', Helvetica, Arial-Unicode, Arial, Sans-serif">Created by Martin LEBRETON</text><text x="0" y="420" fill="#000000" font-size="5px" font-weight="bold" font-family="'Helvetica Neue', Helvetica, Arial-Unicode, Arial, Sans-serif">from the Noun Project</text></svg>